<svg width="153" height="167" viewBox="0 0 153 167" fill="none" xmlns="http://www.w3.org/2000/svg">
<path d="M86 0C89.821 0.530691 92.0617 1.49702 95 4C94.1816 8.81964 91.2651 12.3586 88.5937 16.3438C87.1987 18.6689 86.4486 20.3581 86 23C87.1137 22.34 88.2275 21.68 89.375 21C97.3222 17.4015 108.644 17.6826 117 20C117.187 22.3125 117.187 22.3125 117 25C115.5 26.6875 115.5 26.6875 114 28C114 28.66 114 29.32 114 30C114.583 30.2333 115.165 30.4666 115.766 30.707C130.732 37.3664 141.136 50.4392 148 65C155.512 84.7121 152.829 106.111 144.849 125.114C137.576 141.279 124.189 153.223 108 160C87.7817 167.427 65.623 168.935 45.5781 160.164C38.5762 156.873 31.7834 153.187 26 148C25.2884 147.38 24.5769 146.76 23.8437 146.121C14.4353 137.373 7.48747 126.382 4 114C3.70351 113.042 3.40703 112.084 3.10156 111.098C-1.86654 93.0256 0.408667 73.604 9 57C14.8267 47.6723 21.7635 39.42 31.4336 34.0078C33.1746 33.076 33.1746 33.076 34 31C33.01 30.67 32.02 30.34 31 30C32.6216 26.2712 34.4191 24.5335 38.1602 22.75C44.5625 21.0592 51.4354 21.7314 58 22C57.1943 21.1196 56.3887 20.2391 55.5586 19.332C54.5174 18.1596 53.4771 16.9863 52.4375 15.8125C51.638 14.9453 51.638 14.9453 50.8223 14.0605C46.9642 9.65483 46.9642 9.65483 47.1602 6.07422C47.4373 5.38973 47.7144 4.70523 48 4C55.1594 3.33709 59.9917 5.07898 66 9C69.1288 11.6414 72.1527 14.3054 74 18C74.3635 17.2871 74.727 16.5743 75.1016 15.8398C78.2232 9.89274 81.4164 4.91098 86 0Z" fill="#E54537"/>
<path d="M86 0C89.821 0.530691 92.0617 1.49702 95 4C94.1816 8.81964 91.2651 12.3586 88.5937 16.3438C87.1987 18.6689 86.4486 20.3581 86 23C87.1137 22.34 88.2275 21.68 89.375 21C97.3222 17.4015 108.644 17.6826 117 20C117.187 22.3125 117.187 22.3125 117 25C115.5 26.6875 115.5 26.6875 114 28C114 28.66 114 29.32 114 30C114.583 30.2333 115.165 30.4666 115.766 30.707C130.732 37.3664 141.136 50.4392 148 65C155.512 84.7121 152.829 106.111 144.849 125.114C137.576 141.279 124.189 153.223 108 160C87.7817 167.427 65.623 168.935 45.5781 160.164C38.5762 156.873 31.7834 153.187 26 148C25.2884 147.38 24.5769 146.76 23.8437 146.121C14.4353 137.373 7.48747 126.382 4 114C3.70351 113.042 3.40703 112.084 3.10156 111.098C-1.86654 93.0256 0.408667 73.604 9 57C14.8267 47.6723 21.7635 39.42 31.4336 34.0078C33.1746 33.076 33.1746 33.076 34 31C33.01 30.67 32.02 30.34 31 30C32.6216 26.2712 34.4191 24.5335 38.1602 22.75C44.5625 21.0592 51.4354 21.7314 58 22C57.1943 21.1196 56.3887 20.2391 55.5586 19.332C54.5174 18.1596 53.4771 16.9863 52.4375 15.8125C51.638 14.9453 51.638 14.9453 50.8223 14.0605C46.9642 9.65483 46.9642 9.65483 47.1602 6.07422C47.4373 5.38973 47.7144 4.70523 48 4C55.1594 3.33709 59.9917 5.07898 66 9C69.1288 11.6414 72.1527 14.3054 74 18C74.3635 17.2871 74.727 16.5743 75.1016 15.8398C78.2232 9.89274 81.4164 4.91098 86 0ZM91 38C91.3609 38.5801 91.7219 39.1602 92.0937 39.7578C94.799 44.3117 96.7016 47.5278 96 53C91.1647 52.3363 87.5974 49.0362 83.7773 46.2383C79.7574 43.1473 79.7574 43.1473 75 42C73.1095 43.2489 73.1095 43.2489 71.375 45.125C67.0462 49.2006 62.3996 51.5989 57 54C57.1151 52.2701 57.2426 50.5411 57.375 48.8125C57.4446 47.8496 57.5142 46.8866 57.5859 45.8945C58.0022 42.9849 58.7987 40.6711 60 38C46.7835 35.2988 46.7835 35.2988 34.5547 39.9727C33.7116 40.6417 32.8686 41.3107 32 42C31.0538 42.7412 30.1077 43.4824 29.1328 44.2461C16.9273 54.5827 9.68018 68.0998 8 84C6.53913 103.655 12.2727 121.867 25 137C36.5779 149.621 53.1334 157.56 70.2617 158.305C91.5825 158.739 110.752 153.844 126.687 138.938C139.743 125.249 145.806 108.013 145.524 89.2495C144.854 73.3711 138.718 58.9606 127.719 47.4805C121.327 41.6492 112.958 35.7943 104.187 34.625C99.6093 35.1636 95.3644 36.5509 91 38Z" fill="#263930"/>
<path d="M86 0C89.821 0.530691 92.0617 1.49702 95 4C94.1816 8.81964 91.2651 12.3586 88.5937 16.3438C87.1987 18.6689 86.4486 20.3581 86 23C87.1137 22.34 88.2275 21.68 89.375 21C97.3222 17.4015 108.644 17.6826 117 20C117.187 22.3125 117.187 22.3125 117 25C115.5 26.6875 115.5 26.6875 114 28C114 28.66 114 29.32 114 30C114.583 30.2333 115.165 30.4666 115.766 30.707C130.732 37.3664 141.136 50.4392 148 65C155.512 84.7121 152.829 106.111 144.849 125.114C137.576 141.279 124.189 153.223 108 160C87.7817 167.427 65.623 168.935 45.5781 160.164C38.5762 156.873 31.7834 153.187 26 148C25.2884 147.38 24.5769 146.76 23.8437 146.121C14.4353 137.373 7.48747 126.382 4 114C3.70351 113.042 3.40703 112.084 3.10156 111.098C-1.86654 93.0256 0.408667 73.604 9 57C14.8267 47.6723 21.7635 39.42 31.4336 34.0078C33.1746 33.076 33.1746 33.076 34 31C33.01 30.67 32.02 30.34 31 30C32.6216 26.2712 34.4191 24.5335 38.1602 22.75C44.5625 21.0592 51.4354 21.7314 58 22C57.1943 21.1196 56.3887 20.2391 55.5586 19.332C54.5174 18.1596 53.4771 16.9863 52.4375 15.8125C51.638 14.9453 51.638 14.9453 50.8223 14.0605C46.9642 9.65483 46.9642 9.65483 47.1602 6.07422C47.4373 5.38973 47.7144 4.70523 48 4C55.1594 3.33709 59.9917 5.07898 66 9C69.1288 11.6414 72.1527 14.3054 74 18C74.3635 17.2871 74.727 16.5743 75.1016 15.8398C78.2232 9.89274 81.4164 4.91098 86 0ZM91 38C91.3609 38.5801 91.7219 39.1602 92.0937 39.7578C94.799 44.3117 96.7016 47.5278 96 53C91.1647 52.3363 87.5974 49.0362 83.7773 46.2383C79.7574 43.1473 79.7574 43.1473 75 42C73.1095 43.2489 73.1095 43.2489 71.375 45.125C67.0462 49.2006 62.3996 51.5989 57 54C57.1151 52.2701 57.2426 50.5411 57.375 48.8125C57.4446 47.8496 57.5142 46.8866 57.5859 45.8945C58.0022 42.9849 58.7987 40.6711 60 38C46.7835 35.2988 46.7835 35.2988 34.5547 39.9727C33.7116 40.6417 32.8686 41.3107 32 42C31.0538 42.7412 30.1077 43.4824 29.1328 44.2461C16.9273 54.5827 9.68018 68.0998 8 84C6.53913 103.655 12.2727 121.867 25 137C36.5779 149.621 53.1334 157.56 70.2617 158.305C91.5825 158.739 110.752 153.844 126.687 138.938C139.743 125.249 145.806 108.013 145.524 89.2495C144.854 73.3711 138.718 58.9606 127.719 47.4805C121.327 41.6492 112.958 35.7943 104.187 34.625C99.6093 35.1636 95.3644 36.5509 91 38Z" fill="#263930"/>
<path d="M36 74C40.3626 74.5778 43.9755 75.6715 48 77.4375C55.5807 80.7442 62.1655 82.4106 70.375 83.125C71.3018 83.2114 72.2287 83.2977 73.1836 83.3867C75.4552 83.5975 77.7272 83.8017 80 84C80.495 86.475 80.495 86.475 81 89C73.1782 92.9109 60.2304 89.2777 52.3398 86.8945C46.3681 84.8537 41.0479 82.8842 36 79C35.625 76.25 35.625 76.25 36 74Z" fill="#F6E8E4"/>
<path d="M123 65C125.75 65.25 125.75 65.25 128 66C127.315 71.1291 123.676 73.518 119.949 76.75C111.496 83.199 99.8908 88.8598 89 88C88.67 86.35 88.34 84.7 88 83C88.5221 82.8298 89.0441 82.6597 89.582 82.4844C91.1597 81.9649 92.735 81.4382 94.3086 80.9062C96.0873 80.3073 97.8712 79.7237 99.6602 79.1562C107.558 76.5199 115.308 72.8468 121.145 66.7656C121.757 66.183 122.369 65.6003 123 65Z" fill="#F6E7E2"/>
</svg>
