<?xml version="1.0" encoding="UTF-8"?>
<svg version="1.1" xmlns="http://www.w3.org/2000/svg" width="192" height="192">
<path d="M0 0 C63.36 0 126.72 0 192 0 C192 63.36 192 126.72 192 192 C128.64 192 65.28 192 0 192 C0 128.64 0 65.28 0 0 Z " fill="#F6F3EE" transform="translate(0,0)"/>
<path d="M0 0 C3.82097239 0.53069061 6.06171403 1.49701566 9 4 C8.1815708 8.81963862 5.26510881 12.35860817 2.59375 16.34375 C1.19868604 18.66885661 0.44862823 20.35807823 0 23 C1.11375 22.34 2.2275 21.68 3.375 21 C11.32225325 17.40148373 22.64363667 17.68261076 31 20 C31.1875 22.3125 31.1875 22.3125 31 25 C29.5 26.6875 29.5 26.6875 28 28 C28 28.66 28 29.32 28 30 C28.58265625 30.23332031 29.1653125 30.46664062 29.765625 30.70703125 C44.73152152 37.36638458 55.13590436 50.43918173 62 65 C69.51214971 84.71211379 66.82906184 106.11077561 58.84863281 125.11376953 C51.57580689 141.27885961 38.18911113 153.22316278 22 160 C1.78172307 167.42712214 -20.37700412 168.93481109 -40.421875 160.1640625 C-47.42377407 156.87287314 -54.21656957 153.18733124 -60 148 C-60.7115625 147.37996094 -61.423125 146.75992188 -62.15625 146.12109375 C-71.56465809 137.37320746 -78.51252159 126.38230972 -82 114 C-82.29648438 113.04222656 -82.59296875 112.08445312 -82.8984375 111.09765625 C-87.86653734 93.02562336 -85.59132985 73.60396909 -77 57 C-71.17329266 47.67226679 -64.23647986 39.42002591 -54.56640625 34.0078125 C-52.82541822 33.0760145 -52.82541822 33.0760145 -52 31 C-52.99 30.67 -53.98 30.34 -55 30 C-53.37842864 26.27116925 -51.58093527 24.53346262 -47.83984375 22.75 C-41.43751948 21.05915233 -34.56462539 21.73144714 -28 22 C-28.80566406 21.11957031 -29.61132812 20.23914063 -30.44140625 19.33203125 C-31.48256315 18.15955726 -32.5228846 16.98634102 -33.5625 15.8125 C-34.36204102 14.9452832 -34.36204102 14.9452832 -35.17773438 14.06054688 C-39.03584533 9.65483307 -39.03584533 9.65483307 -38.83984375 6.07421875 C-38.56269531 5.38972656 -38.28554687 4.70523437 -38 4 C-30.84056552 3.3370894 -26.00833634 5.07897531 -20 9 C-16.87118292 11.64135645 -13.84729416 14.30541167 -12 18 C-11.63648437 17.28714844 -11.27296875 16.57429688 -10.8984375 15.83984375 C-7.77680586 9.89273526 -4.58358243 4.91098118 0 0 Z " fill="#E54537" transform="translate(105,12)"/>
<path d="M0 0 C3.82097239 0.53069061 6.06171403 1.49701566 9 4 C8.1815708 8.81963862 5.26510881 12.35860817 2.59375 16.34375 C1.19868604 18.66885661 0.44862823 20.35807823 0 23 C1.11375 22.34 2.2275 21.68 3.375 21 C11.32225325 17.40148373 22.64363667 17.68261076 31 20 C31.1875 22.3125 31.1875 22.3125 31 25 C29.5 26.6875 29.5 26.6875 28 28 C28 28.66 28 29.32 28 30 C28.58265625 30.23332031 29.1653125 30.46664062 29.765625 30.70703125 C44.73152152 37.36638458 55.13590436 50.43918173 62 65 C69.51214971 84.71211379 66.82906184 106.11077561 58.84863281 125.11376953 C51.57580689 141.27885961 38.18911113 153.22316278 22 160 C1.78172307 167.42712214 -20.37700412 168.93481109 -40.421875 160.1640625 C-47.42377407 156.87287314 -54.21656957 153.18733124 -60 148 C-60.7115625 147.37996094 -61.423125 146.75992188 -62.15625 146.12109375 C-71.56465809 137.37320746 -78.51252159 126.38230972 -82 114 C-82.29648438 113.04222656 -82.59296875 112.08445312 -82.8984375 111.09765625 C-87.86653734 93.02562336 -85.59132985 73.60396909 -77 57 C-71.17329266 47.67226679 -64.23647986 39.42002591 -54.56640625 34.0078125 C-52.82541822 33.0760145 -52.82541822 33.0760145 -52 31 C-52.99 30.67 -53.98 30.34 -55 30 C-53.37842864 26.27116925 -51.58093527 24.53346262 -47.83984375 22.75 C-41.43751948 21.05915233 -34.56462539 21.73144714 -28 22 C-28.80566406 21.11957031 -29.61132812 20.23914063 -30.44140625 19.33203125 C-31.48256315 18.15955726 -32.5228846 16.98634102 -33.5625 15.8125 C-34.36204102 14.9452832 -34.36204102 14.9452832 -35.17773438 14.06054688 C-39.03584533 9.65483307 -39.03584533 9.65483307 -38.83984375 6.07421875 C-38.56269531 5.38972656 -38.28554687 4.70523437 -38 4 C-30.84056552 3.3370894 -26.00833634 5.07897531 -20 9 C-16.87118292 11.64135645 -13.84729416 14.30541167 -12 18 C-11.63648437 17.28714844 -11.27296875 16.57429688 -10.8984375 15.83984375 C-7.77680586 9.89273526 -4.58358243 4.91098118 0 0 Z M5 38 C5.3609375 38.58007812 5.721875 39.16015625 6.09375 39.7578125 C8.79902662 44.31169481 10.70155811 47.52784676 10 53 C5.16469213 52.33633029 1.59738021 49.03617644 -2.22265625 46.23828125 C-6.24258403 43.14733647 -6.24258403 43.14733647 -11 42 C-12.89053612 43.24891971 -12.89053612 43.24891971 -14.625 45.125 C-18.95377197 49.20057964 -23.60037407 51.59893683 -29 54 C-28.88487847 52.27014758 -28.75744323 50.54111249 -28.625 48.8125 C-28.55539063 47.84957031 -28.48578125 46.88664062 -28.4140625 45.89453125 C-27.99784147 42.98491062 -27.20125904 40.67109226 -26 38 C-39.216487 35.29878357 -39.216487 35.29878357 -51.4453125 39.97265625 C-52.28835937 40.64167969 -53.13140625 41.31070313 -54 42 C-54.94617188 42.74121094 -55.89234375 43.48242188 -56.8671875 44.24609375 C-69.07268412 54.58272706 -76.31981924 68.09975278 -78 84 C-79.46086715 103.65530347 -73.72730102 121.86665445 -61 137 C-49.42210073 149.62113754 -32.86663188 157.55984278 -15.73828125 158.3046875 C5.5825282 158.73866081 24.75209273 153.84411037 40.6875 138.9375 C53.74305118 125.24872665 59.80632821 108.01318686 59.52392578 89.24951172 C58.85396335 73.37109338 52.71846585 58.96059387 41.71875 47.48046875 C35.32728926 41.64917914 26.95757695 35.79434359 18.1875 34.625 C13.60929429 35.16361244 9.36445082 36.55093333 5 38 Z " fill="#263930" transform="translate(105,12)"/>
<path d="M0 0 C4.36257688 0.57778176 7.97551623 1.67154814 12 3.4375 C19.58069691 6.7441842 26.16553543 8.41062434 34.375 9.125 C35.30183594 9.21136719 36.22867188 9.29773438 37.18359375 9.38671875 C39.45522701 9.59748885 41.72724727 9.80173181 44 10 C44.495 12.475 44.495 12.475 45 15 C37.17817566 18.91091217 24.23040976 15.27770113 16.33984375 12.89453125 C10.36805957 10.85370069 5.0478883 8.88415357 0 5 C-0.375 2.25 -0.375 2.25 0 0 Z " fill="#F6E8E4" transform="translate(55,86)"/>
<path d="M0 0 C2.75 0.25 2.75 0.25 5 1 C4.31535186 6.12905896 0.67563368 8.51795966 -3.05078125 11.75 C-11.50385068 18.19896422 -23.109186 23.85980111 -34 23 C-34.33 21.35 -34.66 19.7 -35 18 C-34.47792969 17.82984375 -33.95585938 17.6596875 -33.41796875 17.484375 C-31.84026385 16.9649205 -30.2649574 16.43815461 -28.69140625 15.90625 C-26.91272387 15.30733227 -25.12882057 14.72367877 -23.33984375 14.15625 C-15.44202798 11.51985682 -7.69211561 7.84679441 -1.85546875 1.765625 C-1.24316406 1.18296875 -0.63085938 0.6003125 0 0 Z " fill="#F6E7E2" transform="translate(142,77)"/>
<path d="M0 0 C0.99 0.33 1.98 0.66 3 1 C0.36 3.64 -2.28 6.28 -5 9 C-5 4.61031544 -2.87194899 3.23094261 0 0 Z " fill="#44524C" transform="translate(105,12)"/>
</svg>
