<svg xmlns="http://www.w3.org/2000/svg" xmlns:xlink="http://www.w3.org/1999/xlink" version="1.1" x="0px" y="0px" viewBox="0 0 512 512" style="enable-background:new 0 0 512 512;" xml:space="preserve">
<style type="text/css">
	.st0{fill:#7585F0;stroke:#000000;stroke-width:20;stroke-linecap:round;stroke-linejoin:round;stroke-miterlimit:10;}
	.st1{fill:none;stroke:#000000;stroke-width:20;stroke-linecap:round;stroke-linejoin:round;stroke-miterlimit:10;}
	.st2{fill:#FFFFFF;}
	.st3{fill:#E4B75C;stroke:#000000;stroke-width:20;stroke-linecap:round;stroke-linejoin:round;stroke-miterlimit:10;}
	.st4{fill:#DE5A5A;stroke:#000000;stroke-width:20;stroke-linecap:round;stroke-linejoin:round;stroke-miterlimit:10;}
	.st5{fill:#D4F4FF;}
	.st6{fill:#D4F4FF;stroke:#000000;stroke-width:20;stroke-linecap:round;stroke-linejoin:round;stroke-miterlimit:10;}
	.st7{fill:#F2DF98;stroke:#000000;stroke-width:20;stroke-linecap:round;stroke-linejoin:round;stroke-miterlimit:10;}
	.st8{fill:#FFFFFF;stroke:#000000;stroke-width:20;stroke-linecap:round;stroke-linejoin:round;stroke-miterlimit:10;}
	.st9{fill:#87BF8C;stroke:#000000;stroke-width:20;stroke-linecap:round;stroke-linejoin:round;stroke-miterlimit:10;}
	.st10{fill:#7585F0;}
	.st11{fill:#EDD4B4;stroke:#000000;stroke-width:20;stroke-linecap:round;stroke-linejoin:round;stroke-miterlimit:10;}
	.st12{fill:#E4B75C;}
	.st13{fill:#AACF9A;stroke:#000000;stroke-width:20;stroke-linecap:round;stroke-linejoin:round;stroke-miterlimit:10;}
	.st14{fill:#E8C673;stroke:#000000;stroke-width:20;stroke-linecap:round;stroke-linejoin:round;stroke-miterlimit:10;}
	.st15{fill:#F2DF98;}
	.st16{fill:#D0524E;stroke:#000000;stroke-width:20;stroke-linecap:round;stroke-linejoin:round;stroke-miterlimit:10;}
	.st17{fill:#87BF8C;}
	.st18{fill:#AACF9A;}
	.st19{fill:#DE5A5A;}
	.st20{fill:#E8C673;}
	.st21{fill:#7ACBAA;}
	.st22{fill:#EFCDC2;}
	.st23{fill:#6B7DFA;stroke:#000000;stroke-width:20;stroke-linecap:round;stroke-linejoin:round;stroke-miterlimit:10;}
</style>
<g id="GUIDELINES">
</g>
<g id="ICON_1_">
	<g>
		<g>
			<g>
				<path class="st6" d="M96.3,404.7l-32.3,32.4c-12.5,12.5-12.5,33,0,45.5l0,0c12.5,12.5,33,12.5,45.5,0l35.5-35.5      C126.6,435.5,110.2,421.2,96.3,404.7z"/>
				<path class="st6" d="M448.1,437.1l-32.3-32.4c-13.9,16.5-30.3,30.8-48.6,42.3l35.5,35.5c12.5,12.5,33,12.5,45.5,0l0,0      C460.6,470,460.6,449.6,448.1,437.1z"/>
				<g>
					<path class="st7" d="M176.8,76.6c-15.8-25.8-44.3-43.1-76.8-43.1c-49.7,0-90,40.3-90,90c0,34.5,19.5,64.5,48,79.6"/>
					<ellipse class="st10" cx="256" cy="270" rx="208.9" ry="209"/>
					<path class="st1" d="M112.3,118.4c37.4-35.5,88-57.3,143.7-57.3c115.4,0,208.9,93.6,208.9,209S371.4,479,256,479       S47.1,385.5,47.1,270c0-34.1,8.2-66.2,22.6-94.7"/>
					<path class="st7" d="M412,33.6c-32.5,0-61,17.2-76.8,43.1C391,99.5,434.6,145.8,454,203.2c28.5-15.1,48-45.1,48-79.6       C502,73.9,461.7,33.6,412,33.6z"/>
					<ellipse class="st2" cx="256" cy="270" rx="161.4" ry="161.5"/>
					<path class="st1" d="M387.1,176c19.1,26.5,30.3,59,30.3,94.1c0,89-72.4,161.5-161.4,161.5S94.6,359.1,94.6,270       c0-89,72.4-161.5,161.4-161.5c29.2,0,56.7,7.8,80.4,21.5"/>
					<line class="st1" x1="278.9" y1="263.2" x2="336.3" y2="205.7"/>
					<line class="st1" x1="191.7" y1="254" x2="229.7" y2="273"/>
				</g>
			</g>
			<line class="st1" x1="256" y1="22.4" x2="256" y2="57.5"/>
			<line class="st1" x1="220.1" y1="20.1" x2="291.9" y2="20.1"/>
		</g>
		<ellipse class="st4" cx="256" cy="276.1" rx="24.1" ry="24.1"/>
		<g>
			<line class="st1" x1="256" y1="114.7" x2="256" y2="142"/>
			<line class="st1" x1="256" y1="400.9" x2="256" y2="428.2"/>
		</g>
		<g>
			<line class="st1" x1="412.7" y1="271.5" x2="385.4" y2="271.5"/>
			<line class="st1" x1="126.6" y1="271.5" x2="99.3" y2="271.5"/>
		</g>
		<g>
			<line class="st1" x1="157.3" y1="370.2" x2="145.2" y2="382.3"/>
		</g>
		<g>
			<line class="st1" x1="366.8" y1="382.3" x2="354.7" y2="370.2"/>
			<line class="st1" x1="157.3" y1="172.7" x2="145.2" y2="160.6"/>
		</g>
	</g>
</g>
</svg>